<?xml version="1.0" ?><svg height="256" viewBox="0 0 256 256" width="256" xmlns="http://www.w3.org/2000/svg"><title/><g id="bodybuilding-nutrition-protein"><g><path d="M239.76,93.05A82.519,82.519,0,0,0,223,49.21l-1.61-2.09A8.135,8.135,0,0,0,216,44.05V36h8a8.011,8.011,0,0,0,8-8V24a8.011,8.011,0,0,0-8-8H96a8.011,8.011,0,0,0-8,8v4a8.011,8.011,0,0,0,8,8h8v8.05a8.135,8.135,0,0,0-5.39,3.07L97,49.21c-1.67,2.18-3.24,4.46-4.68,6.79H89a2,2,0,0,0-1.75,1.04L76.82,76.01c-.34,0-.69-.01-1.03-.01H52.21A37.478,37.478,0,0,0,25.14,88H22a6,6,0,0,0-6,6v8a6.022,6.022,0,0,0,6,6h84v4H24a2,2,0,0,0-1.47.64,1.974,1.974,0,0,0-.52,1.52l.15,1.84,2.91,35.97a1.789,1.789,0,0,0,.02.24l6.79,84.05a4.011,4.011,0,0,0,4,3.74H92.12a3.992,3.992,0,0,0,3.99-3.71l.4-4.99a21.468,21.468,0,0,0,5.49.7H218a22.026,22.026,0,0,0,22-22V94A2.028,2.028,0,0,0,239.76,93.05ZM136,32h-8V20h8Zm-10,4h86v8H108V36ZM42,190H53a2,2,0,0,1,0,4H42a2,2,0,0,1,0-4Zm-2-14a2.006,2.006,0,0,1,2-2h5a2,2,0,0,1,0,4H42A2.006,2.006,0,0,1,40,176Zm2,30h5a2,2,0,0,1,0,4H42a2,2,0,0,1,0-4Zm0,16H53a2,2,0,0,1,0,4H42a2,2,0,0,1,0-4Zm11-60H42a2,2,0,0,1,0-4H53a2,2,0,0,1,0,4Zm48.83-46-2.75,33.97H28.92L26.17,116ZM236,210a18.021,18.021,0,0,1-18,18H102a17.893,17.893,0,0,1-5.16-.75l6.07-75.07L105.84,116H108a2.006,2.006,0,0,0,2-2v-7.54a5.947,5.947,0,0,0,2-4.46V94a6,6,0,0,0-6-6h-3.14A36.917,36.917,0,0,0,100,85.26V58a2.006,2.006,0,0,0-2-2h-.93c.98-1.49,2.02-2.94,3.1-4.35l1.61-2.09A4.032,4.032,0,0,1,104.95,48h110.1a4.032,4.032,0,0,1,3.17,1.56l1.61,2.09A78.366,78.366,0,0,1,235.65,92H138a2.006,2.006,0,0,0-2,2v84a2.006,2.006,0,0,0,2,2h98Z"/><path d="M42,130H53a2,2,0,0,0,0-4H42a2,2,0,0,0,0,4Z"/><path d="M42,146h5a2,2,0,0,0,0-4H42a2,2,0,0,0,0,4Z"/></g><path d="M22,112h2a2,2,0,0,0-1.47.64,1.974,1.974,0,0,0-.52,1.52l.15,1.84H20a2.006,2.006,0,0,1-2-2v-7.54A5.931,5.931,0,0,0,22,108Z"/></g></svg>