<?xml version="1.0" encoding="UTF-8" standalone="no"?>
<!-- Created with Inkscape (http://www.inkscape.org/) -->

<svg
   width="64pt"
   height="64pt"
   viewBox="0 0 22.577778 22.577778"
   version="1.1"
   id="svg831"
   inkscape:version="1.1.1 (3bf5ae0d25, 2021-09-20)"
   sodipodi:docname="Export.svg"
   inkscape:export-filename="C:\Users\User\Desktop\CARLOS PROJECT\5. MAY 1\Done\Flat\01 - Dumbbell.png"
   inkscape:export-xdpi="576"
   inkscape:export-ydpi="576"
   xmlns:inkscape="http://www.inkscape.org/namespaces/inkscape"
   xmlns:sodipodi="http://sodipodi.sourceforge.net/DTD/sodipodi-0.dtd"
   xmlns="http://www.w3.org/2000/svg"
   xmlns:svg="http://www.w3.org/2000/svg"
   xmlns:rdf="http://www.w3.org/1999/02/22-rdf-syntax-ns#"
   xmlns:cc="http://creativecommons.org/ns#"
   xmlns:dc="http://purl.org/dc/elements/1.1/">
  <defs
     id="defs825">
    <pattern
       id="EMFhbasepattern"
       patternUnits="userSpaceOnUse"
       width="6"
       height="6"
       x="0"
       y="0" />
    <pattern
       id="EMFhbasepattern-9"
       patternUnits="userSpaceOnUse"
       width="6"
       height="6"
       x="0"
       y="0" />
    <pattern
       id="EMFhbasepattern-0"
       patternUnits="userSpaceOnUse"
       width="6"
       height="6"
       x="0"
       y="0" />
    <pattern
       id="EMFhbasepattern-7"
       patternUnits="userSpaceOnUse"
       width="6"
       height="6"
       x="0"
       y="0" />
    <pattern
       id="EMFhbasepattern-2"
       patternUnits="userSpaceOnUse"
       width="6"
       height="6"
       x="0"
       y="0" />
    <pattern
       id="EMFhbasepattern-98"
       patternUnits="userSpaceOnUse"
       width="6"
       height="6"
       x="0"
       y="0" />
    <pattern
       id="EMFhbasepattern-6"
       patternUnits="userSpaceOnUse"
       width="6"
       height="6"
       x="0"
       y="0" />
    <pattern
       id="EMFhbasepattern-01"
       patternUnits="userSpaceOnUse"
       width="6"
       height="6"
       x="0"
       y="0" />
    <pattern
       id="EMFhbasepattern-07"
       patternUnits="userSpaceOnUse"
       width="6"
       height="6"
       x="0"
       y="0" />
    <pattern
       id="EMFhbasepattern-8"
       patternUnits="userSpaceOnUse"
       width="6"
       height="6"
       x="0"
       y="0" />
    <pattern
       id="EMFhbasepattern-4"
       patternUnits="userSpaceOnUse"
       width="6"
       height="6"
       x="0"
       y="0" />
    <pattern
       id="EMFhbasepattern-40"
       patternUnits="userSpaceOnUse"
       width="6"
       height="6"
       x="0"
       y="0" />
    <pattern
       id="EMFhbasepattern-08"
       patternUnits="userSpaceOnUse"
       width="6"
       height="6"
       x="0"
       y="0" />
    <pattern
       id="EMFhbasepattern-04"
       patternUnits="userSpaceOnUse"
       width="6"
       height="6"
       x="0"
       y="0" />
    <pattern
       id="EMFhbasepattern-014"
       patternUnits="userSpaceOnUse"
       width="6"
       height="6"
       x="0"
       y="0" />
    <pattern
       id="EMFhbasepattern-27"
       patternUnits="userSpaceOnUse"
       width="6"
       height="6"
       x="0"
       y="0" />
    <pattern
       id="EMFhbasepattern-09"
       patternUnits="userSpaceOnUse"
       width="6"
       height="6"
       x="0"
       y="0" />
    <pattern
       id="EMFhbasepattern-5"
       patternUnits="userSpaceOnUse"
       width="6"
       height="6"
       x="0"
       y="0" />
    <pattern
       id="EMFhbasepattern-018"
       patternUnits="userSpaceOnUse"
       width="6"
       height="6"
       x="0"
       y="0" />
  </defs>
  <sodipodi:namedview
     id="base"
     pagecolor="#ffffff"
     bordercolor="#666666"
     borderopacity="1.0"
     inkscape:pageopacity="0.0"
     inkscape:pageshadow="2"
     inkscape:zoom="6.5876941"
     inkscape:cx="28.082664"
     inkscape:cy="49.258511"
     inkscape:document-units="pt"
     inkscape:current-layer="layer1"
     showgrid="false"
     units="pt"
     inkscape:window-width="1920"
     inkscape:window-height="1001"
     inkscape:window-x="-9"
     inkscape:window-y="-9"
     inkscape:window-maximized="1"
     inkscape:pagecheckerboard="true"
     inkscape:showpageshadow="false"
     inkscape:object-paths="true"
     inkscape:snap-intersection-paths="true"
     inkscape:snap-smooth-nodes="true"
     inkscape:snap-midpoints="true"
     showguides="true"
     inkscape:snap-bbox="true"
     inkscape:bbox-nodes="true"
     inkscape:snap-nodes="false"
     inkscape:snap-global="true">
    <inkscape:grid
       type="xygrid"
       id="grid1378" />
    <sodipodi:guide
       position="0.97013831,21.607643"
       orientation="78.000048,0"
       id="guide1380"
       inkscape:locked="false" />
    <sodipodi:guide
       position="0.97013831,0.97013129"
       orientation="0,78.000005"
       id="guide1382"
       inkscape:locked="false" />
    <sodipodi:guide
       position="21.607639,0.97013129"
       orientation="-78.000048,0"
       id="guide1384"
       inkscape:locked="false" />
    <sodipodi:guide
       position="21.607639,21.607643"
       orientation="0,-78.000005"
       id="guide1386"
       inkscape:locked="false" />
  </sodipodi:namedview>
  <metadata
     id="metadata828">
    <rdf:RDF>
      <cc:Work
         rdf:about="">
        <dc:format>image/svg+xml</dc:format>
        <dc:type
           rdf:resource="http://purl.org/dc/dcmitype/StillImage" />
      </cc:Work>
    </rdf:RDF>
  </metadata>
  <g
     inkscape:label="Icon"
     inkscape:groupmode="layer"
     id="layer1"
     transform="translate(0,-274.42223)">
    <g
       id="g108942"
       style="display:inline;stroke-width:0.794137"
       transform="matrix(1.2592292,0,0,1.2592292,39.037423,-39.207963)">
      <path
         id="path47980"
         style="color:#000000;fill:#3a4d5c;stroke-width:3.00146;stroke-linecap:round;stroke-linejoin:round;-inkscape-stroke:none"
         d="m -88.111328,-114.25391 c -3.816805,0.019 -8.082052,0.28421 -11.683594,1.79688 -2.619308,1.10011 -4.906908,2.92571 -6.224608,5.77344 -1.31771,2.84776 -1.66467,6.63852 -0.72266,11.648434 1.35459,5.559869 3.45168,10.540471 5.53708,14.814449 -1.84077,3.478375 -3.05664,7.374288 -3.05664,11.605469 0,4.546053 1.24247,8.788549 3.38867,12.341796 0.76837,1.272152 2.033814,2.224119 3.402347,2.894532 1.368529,0.670412 2.854099,1.0625 4.201172,1.0625 h 19.966797 c 1.347069,0 2.832642,-0.392088 4.201172,-1.0625 1.368529,-0.670413 2.626164,-1.62238 3.394531,-2.894532 2.146204,-3.553247 3.396488,-7.795743 3.396484,-12.341796 -7e-6,-4.343358 -1.271327,-8.315191 -3.173828,-11.685547 2.486221,-5.153425 4.571171,-9.527626 5.654302,-14.734371 0.942017,-5.009914 0.595031,-8.800484 -0.722656,-11.648434 -1.317691,-2.84792 -3.605295,-4.67315 -6.22461,-5.77344 -5.238625,-2.20059 -11.880965,-1.76178 -16.505859,-1.76367 -0.002,-1e-5 -0.0039,-1e-5 -0.0059,0 h -0.002 c -1.444747,9.5e-4 -3.086145,-0.0419 -4.820312,-0.0332 z m 4.485674,8.13462 c 3.151963,0.0138 7.236756,-0.25831 10.551522,1.02159 1.657384,0.63992 3.151349,1.73023 4.015625,3.44727 0.864272,1.717072 1.07026,3.968009 0.480469,6.851562 -0.783362,2.912887 -1.99911,5.708256 -3.306639,7.912113 -0.01251,0.01668 -0.02553,0.03296 -0.03906,0.04883 v 0.002 c -0.01844,0.0438 -0.03998,0.08622 -0.06445,0.126954 -0.282605,0.475894 -0.898021,0.631718 -1.373047,0.347656 -3.068682,-1.830765 -6.385512,-2.878906 -9.927734,-2.878906 -3.661434,0 -7.060783,1.117969 -9.908204,3.123046 -0.814745,0.500273 -1.234564,0.295114 -1.541016,-0.501948 -1.381743,-2.868996 -2.651089,-5.67572 -3.255858,-8.179691 -0.589795,-2.883553 -0.38576,-5.134486 0.478516,-6.851566 0.864272,-1.71704 2.360195,-2.80735 4.017578,-3.44727 3.546456,-1.16706 6.720336,-1.03548 9.872298,-1.02164 z"
         transform="matrix(0.26458334,0,0,0.26458334,0,280.06666)"
         sodipodi:nodetypes="cssccsssssscsccsssssccccsccccccscccscc" />
      <path
         id="path50396"
         style="color:#000000;fill:#c8dae5;fill-opacity:1;stroke-width:3.00146;stroke-linecap:round;stroke-linejoin:round;-inkscape-stroke:none"
         d="m -93.494181,-105.09764 c 3.502874,-1.15633 6.812474,-1.03661 10.208985,-1.0098 2.809428,0.002 6.894218,-0.27025 10.208984,1.00976 0.511857,0.19763 1.006056,0.44117 1.472656,0.73047 2.320165,-2.32016 4.640748,-4.64075 6.960938,-6.96093 -5.550159,-3.40828 -10.429029,-2.89258 -17.115881,-2.89058 -6.686853,0.002 -14.364707,-0.58273 -19.770891,2.63862 z"
         transform="matrix(0.26458334,0,0,0.26458334,0,280.06666)"
         sodipodi:nodetypes="ccsccccc" />
      <path
         id="path53154"
         style="color:#000000;fill:#c8dae5;fill-opacity:1;stroke-width:0.794137;stroke-linecap:round;stroke-linejoin:round;-inkscape-stroke:none"
         d="m -27.323913,263.7384 c 0.15208,0.51337 0.366869,0.99596 0.634585,1.43919 0.203297,0.33659 0.538113,0.58847 0.900204,0.76585 0.36209,0.17738 0.755147,0.28112 1.11156,0.28112 h 5.282882 c 0.356412,0 0.74947,-0.10374 1.11156,-0.28112 0.36209,-0.17738 0.694839,-0.42926 0.898136,-0.76585 0.267593,-0.44302 0.482856,-0.92598 0.635103,-1.43919 -3.524677,0 -7.049353,0 -10.57403,0 z"
         sodipodi:nodetypes="ccssssccc" />
      <path
         id="path23660"
         style="color:#000000;fill:#143441;stroke-width:3.00146;stroke-linecap:round;stroke-linejoin:round;-inkscape-stroke:none"
         d="m -103.76758,-63.714844 c 0.13917,0.68066 0.31321,1.345547 0.50781,2.001953 h 11.695317 a 0.99999871,0.99999871 0 0 0 1.003906,-1.003906 0.99999871,0.99999871 0 0 0 -1.003906,-0.998047 z m 29.410158,0 a 0.99999871,0.99999871 0 0 0 -0.996094,0.998047 0.99999871,0.99999871 0 0 0 0.996094,1.003906 h 11.041016 c 0.195203,-0.656354 0.368076,-1.321348 0.507812,-2.001953 z"
         transform="matrix(0.26458334,0,0,0.26458334,0,280.06666)" />
      <path
         style="color:#000000;fill:#143441;fill-opacity:1;stroke-width:0.794137;stroke-linecap:round;stroke-linejoin:round;-inkscape-stroke:none"
         d="m -21.949219,257.71289 c -1.920802,0 -3.48437,1.56358 -3.484375,3.48438 -1.2e-5,1.92081 1.563564,3.48437 3.484375,3.48437 1.920812,0 3.482434,-1.56356 3.482422,-3.48437 -4e-6,-1.9208 -1.56162,-3.48438 -3.482422,-3.48438 z"
         id="path53488" />
      <path
         style="color:#000000;fill:#c8dae5;fill-opacity:1;stroke-width:0.794137;stroke-linecap:round;stroke-linejoin:round;-inkscape-stroke:none"
         d="m -21.949219,258.24219 c 1.634821,0 2.953122,1.32026 2.953125,2.95508 10e-6,1.63482 -1.318296,2.95507 -2.953125,2.95507 -1.634829,0 -2.955088,-1.32025 -2.955078,-2.95507 4e-6,-1.63482 1.320258,-2.95508 2.955078,-2.95508 z"
         id="path53671" />
      <path
         style="color:#000000;fill:#3a4d5c;fill-opacity:1;stroke-width:0.794137;stroke-linecap:round;stroke-linejoin:round;-inkscape-stroke:none"
         d="m -23.738281,260.93359 a 0.26458299,0.26458299 0 0 0 -0.263672,0.26368 0.26458299,0.26458299 0 0 0 0.263672,0.26367 h 3.576172 a 0.26458299,0.26458299 0 0 0 0.265625,-0.26367 0.26458299,0.26458299 0 0 0 -0.265625,-0.26368 z"
         id="path22665-3" />
      <path
         style="color:#000000;fill:#143441;fill-opacity:1;stroke-width:0.794137;stroke-linecap:round;stroke-linejoin:round;-inkscape-stroke:none"
         d="m -23.291016,260.2168 a 0.26458299,0.26458299 0 0 0 -0.263671,0.26562 v 1.42969 a 0.26458299,0.26458299 0 0 0 0.263671,0.26562 0.26458299,0.26458299 0 0 0 0.265625,-0.26562 v -1.42969 a 0.26458299,0.26458299 0 0 0 -0.265625,-0.26562 z"
         id="path22667" />
      <path
         style="color:#000000;fill:#143441;fill-opacity:1;stroke-width:0.794137;stroke-linecap:round;stroke-linejoin:round;-inkscape-stroke:none"
         d="m -20.609375,260.2168 a 0.26458299,0.26458299 0 0 0 -0.263672,0.26562 v 1.42969 a 0.26458299,0.26458299 0 0 0 0.263672,0.26562 0.26458299,0.26458299 0 0 0 0.265625,-0.26562 v -1.42969 a 0.26458299,0.26458299 0 0 0 -0.265625,-0.26562 z"
         id="path22669" />
      <path
         id="path15375"
         style="color:#000000;fill:#143441;fill-opacity:1;stroke-width:3.00146;stroke-linecap:round;stroke-linejoin:round;-inkscape-stroke:none"
         d="m -69.230469,-84.994141 c 1.064502,1.21622 1.583985,2.095703 1.583985,2.095703 2.08168,3.467566 3.33593,7.71761 3.335937,12.283204 4e-6,4.546053 -1.25028,8.788549 -3.396484,12.341796 -0.768367,1.272152 -2.026002,2.224119 -3.394531,2.894532 -1.36853,0.670412 -2.854103,1.0625 -4.201172,1.0625 h -19.966797 c -1.347073,0 -2.832643,-0.392088 -4.201172,-1.0625 -0.458402,-0.224561 -0.903647,-0.482414 -1.324217,-0.771485 0.77431,1.210397 2.000355,2.122955 3.324217,2.771485 1.368529,0.670412 2.854099,1.0625 4.201172,1.0625 h 19.966797 c 1.347069,0 2.832642,-0.392088 4.201172,-1.0625 1.368529,-0.670413 2.626164,-1.62238 3.394531,-2.894532 2.146204,-3.553247 3.396488,-7.795743 3.396484,-12.341796 -7e-6,-4.565594 -1.254257,-8.815638 -3.335937,-12.283204 0,0 -1.161654,-1.966737 -3.583985,-4.095703 z"
         transform="matrix(0.26458334,0,0,0.26458334,0,280.06666)" />
      <path
         id="rect326088"
         style="fill:#143441;stroke-width:1.58827;stroke-linecap:round;stroke-linejoin:round;stop-color:#000000"
         d="m -69.601562,-91.669922 c -0.652569,1.732058 -1.40057,3.313597 -2.283204,4.783203 -0.309532,0.631311 -0.905496,0.822887 -1.476557,0.52544 -0.188266,-0.112319 -0.380184,-0.211994 -0.570313,-0.31836 l 8.46875,6.417969 c -0.0072,-0.01288 -0.01422,-0.0262 -0.02148,-0.03906 1.001978,-1.899483 1.952849,-3.917703 2.835937,-6.09961 z m -34.355468,5.257813 c 0.85893,2.175001 1.77901,4.207902 2.73828,6.162109 l 8.279297,-6.035156 c -0.78624,0.608743 -1.517555,0.38339 -1.798829,-0.33398 -0.774872,-1.466843 -1.518433,-3.096639 -2.19336,-4.914062 z"
         transform="matrix(0.26458334,0,0,0.26458334,0,280.06666)"
         sodipodi:nodetypes="cccccccccccccc" />
      <path
         id="path326519"
         style="fill:#143441;stroke-width:1.58827;stroke-linecap:round;stroke-linejoin:round;stop-color:#000000"
         d="m -100.23633,-112.25195 c -2.01169,0.92352 -3.79573,2.29805 -5.05664,4.26562 l 7.369142,7.36914 c 0.731915,-2.12024 2.954839,-3.87394 4.736328,-4.58593 z m 34.285158,0.17773 -7.019531,7.02149 c 2.435592,1.23995 3.702315,2.59903 4.453125,4.86914 l 7.458984,-7.45899 c -1.191779,-2.02596 -2.921693,-3.45521 -4.892578,-4.43164 z"
         transform="matrix(0.26458334,0,0,0.26458334,0,280.06666)"
         sodipodi:nodetypes="cccccccccc" />
      <path
         id="path329664"
         style="color:#000000;fill:#3a4d5c;fill-opacity:1;stroke-width:3.00146;stroke-linecap:round;stroke-linejoin:round;-inkscape-stroke:none"
         d="m -66.001953,-61.712891 c -1.543563,4.172198 -4.782899,7.346962 -9.300781,7.396485 h -19.966797 c -2.187762,-0.135814 -3.849708,-0.960145 -5.523439,-1.833985 0.003,0.0044 0.005,0.0093 0.008,0.01367 1.446507,2.112838 4.508231,3.665283 7.515653,3.820419 h 19.966797 c 5.357947,0 8.970845,-4.106881 9.992263,-9.396564 z"
         transform="matrix(0.26458334,0,0,0.26458334,0,280.06666)"
         sodipodi:nodetypes="ccccccccc" />
    </g>
  </g>
</svg>
