<?xml version="1.0" encoding="UTF-8" standalone="no"?>
<!-- Created with Inkscape (http://www.inkscape.org/) -->

<svg
   width="64pt"
   height="64pt"
   viewBox="0 0 22.577778 22.577778"
   version="1.1"
   id="svg831"
   inkscape:version="1.1.1 (3bf5ae0d25, 2021-09-20)"
   sodipodi:docname="EXPORT.svg"
   inkscape:export-filename="C:\Users\User\Desktop\CARLOS PROJECT\5. MAY 1\Done\FiledLine\01 - Dumbbell.png"
   inkscape:export-xdpi="576"
   inkscape:export-ydpi="576"
   xmlns:inkscape="http://www.inkscape.org/namespaces/inkscape"
   xmlns:sodipodi="http://sodipodi.sourceforge.net/DTD/sodipodi-0.dtd"
   xmlns="http://www.w3.org/2000/svg"
   xmlns:svg="http://www.w3.org/2000/svg"
   xmlns:rdf="http://www.w3.org/1999/02/22-rdf-syntax-ns#"
   xmlns:cc="http://creativecommons.org/ns#"
   xmlns:dc="http://purl.org/dc/elements/1.1/">
  <defs
     id="defs825">
    <pattern
       id="EMFhbasepattern"
       patternUnits="userSpaceOnUse"
       width="6"
       height="6"
       x="0"
       y="0" />
    <pattern
       id="EMFhbasepattern-9"
       patternUnits="userSpaceOnUse"
       width="6"
       height="6"
       x="0"
       y="0" />
    <pattern
       id="EMFhbasepattern-0"
       patternUnits="userSpaceOnUse"
       width="6"
       height="6"
       x="0"
       y="0" />
    <pattern
       id="EMFhbasepattern-7"
       patternUnits="userSpaceOnUse"
       width="6"
       height="6"
       x="0"
       y="0" />
    <pattern
       id="EMFhbasepattern-2"
       patternUnits="userSpaceOnUse"
       width="6"
       height="6"
       x="0"
       y="0" />
    <pattern
       id="EMFhbasepattern-98"
       patternUnits="userSpaceOnUse"
       width="6"
       height="6"
       x="0"
       y="0" />
    <pattern
       id="EMFhbasepattern-6"
       patternUnits="userSpaceOnUse"
       width="6"
       height="6"
       x="0"
       y="0" />
    <pattern
       id="EMFhbasepattern-01"
       patternUnits="userSpaceOnUse"
       width="6"
       height="6"
       x="0"
       y="0" />
    <pattern
       id="EMFhbasepattern-07"
       patternUnits="userSpaceOnUse"
       width="6"
       height="6"
       x="0"
       y="0" />
    <pattern
       id="EMFhbasepattern-8"
       patternUnits="userSpaceOnUse"
       width="6"
       height="6"
       x="0"
       y="0" />
    <pattern
       id="EMFhbasepattern-4"
       patternUnits="userSpaceOnUse"
       width="6"
       height="6"
       x="0"
       y="0" />
    <pattern
       id="EMFhbasepattern-40"
       patternUnits="userSpaceOnUse"
       width="6"
       height="6"
       x="0"
       y="0" />
    <pattern
       id="EMFhbasepattern-08"
       patternUnits="userSpaceOnUse"
       width="6"
       height="6"
       x="0"
       y="0" />
    <pattern
       id="EMFhbasepattern-04"
       patternUnits="userSpaceOnUse"
       width="6"
       height="6"
       x="0"
       y="0" />
    <pattern
       id="EMFhbasepattern-014"
       patternUnits="userSpaceOnUse"
       width="6"
       height="6"
       x="0"
       y="0" />
    <pattern
       id="EMFhbasepattern-27"
       patternUnits="userSpaceOnUse"
       width="6"
       height="6"
       x="0"
       y="0" />
    <pattern
       id="EMFhbasepattern-09"
       patternUnits="userSpaceOnUse"
       width="6"
       height="6"
       x="0"
       y="0" />
    <pattern
       id="EMFhbasepattern-5"
       patternUnits="userSpaceOnUse"
       width="6"
       height="6"
       x="0"
       y="0" />
    <pattern
       id="EMFhbasepattern-018"
       patternUnits="userSpaceOnUse"
       width="6"
       height="6"
       x="0"
       y="0" />
  </defs>
  <sodipodi:namedview
     id="base"
     pagecolor="#ffffff"
     bordercolor="#666666"
     borderopacity="1.0"
     inkscape:pageopacity="0.0"
     inkscape:pageshadow="2"
     inkscape:zoom="9.1757813"
     inkscape:cx="31.822903"
     inkscape:cy="42.666667"
     inkscape:document-units="pt"
     inkscape:current-layer="layer1"
     showgrid="false"
     units="pt"
     inkscape:window-width="1920"
     inkscape:window-height="1001"
     inkscape:window-x="-9"
     inkscape:window-y="-9"
     inkscape:window-maximized="1"
     inkscape:pagecheckerboard="true"
     inkscape:showpageshadow="false"
     inkscape:object-paths="true"
     inkscape:snap-intersection-paths="true"
     inkscape:snap-smooth-nodes="true"
     inkscape:snap-midpoints="true"
     showguides="true"
     inkscape:snap-bbox="true"
     inkscape:bbox-nodes="true"
     inkscape:snap-nodes="false"
     inkscape:snap-global="true">
    <inkscape:grid
       type="xygrid"
       id="grid1378" />
    <sodipodi:guide
       position="0.97013831,21.607643"
       orientation="78.000048,0"
       id="guide1380"
       inkscape:locked="false" />
    <sodipodi:guide
       position="0.97013831,0.97013129"
       orientation="0,78.000005"
       id="guide1382"
       inkscape:locked="false" />
    <sodipodi:guide
       position="21.607639,0.97013129"
       orientation="-78.000048,0"
       id="guide1384"
       inkscape:locked="false" />
    <sodipodi:guide
       position="21.607639,21.607643"
       orientation="0,-78.000005"
       id="guide1386"
       inkscape:locked="false" />
  </sodipodi:namedview>
  <metadata
     id="metadata828">
    <rdf:RDF>
      <cc:Work
         rdf:about="">
        <dc:format>image/svg+xml</dc:format>
        <dc:type
           rdf:resource="http://purl.org/dc/dcmitype/StillImage" />
      </cc:Work>
    </rdf:RDF>
  </metadata>
  <g
     inkscape:label="Icon"
     inkscape:groupmode="layer"
     id="layer1"
     transform="translate(0,-274.42223)">
    <g
       id="g23437"
       style="display:inline;stroke-width:0.794214"
       transform="matrix(1.2591072,0,0,1.2591072,39.035002,-39.175448)">
      <g
         id="g108942"
         style="display:inline;stroke-width:0.794214">
        <path
           id="path47980"
           style="color:#000000;fill:#3a4d5c;stroke-width:3.00175;stroke-linecap:round;stroke-linejoin:round;-inkscape-stroke:none"
           d="m -99.669922,-112.05078 c -2.619308,1.10011 -4.813158,2.92571 -6.130858,5.77344 -1.31771,2.84776 -1.53967,6.32602 -0.59766,11.335934 1.35459,5.559869 3.10793,10.446721 5.19333,14.720699 -1.84077,3.478375 -3.05664,7.374288 -3.05664,11.605469 0,4.546053 1.24247,8.788549 3.38867,12.341796 0.76837,1.272152 2.033814,2.224119 3.402347,2.894532 1.368529,0.670412 2.854099,1.0625 4.201172,1.0625 h 19.966797 c 1.347069,0 2.832642,-0.392088 4.201172,-1.0625 1.368529,-0.670413 2.626164,-1.62238 3.394531,-2.894532 2.146204,-3.553247 3.396488,-7.795743 3.396484,-12.341796 -7e-6,-4.343358 -1.713269,-8.315191 -3.61577,-11.685547 2.486221,-5.153425 4.438589,-9.527626 5.52172,-14.734371 0.942017,-5.009914 1.036972,-8.225964 -0.280715,-11.073914 -1.317691,-2.84792 -3.605295,-4.67315 -6.22461,-5.77344 -5.238625,-2.20059 -11.748382,-1.93855 -14.787153,-1.93902 -5.983189,-0.19247 -12.751416,-0.36453 -17.972817,1.77075 z m 16.044268,5.93149 c 3.151963,0.0138 7.236756,-0.25831 10.551522,1.02159 1.657384,0.63992 2.588849,1.73023 3.453125,3.44727 0.864272,1.717072 1.07026,3.968009 0.480469,6.851562 -0.783362,2.912887 -1.56161,5.333256 -2.869139,7.537113 -0.01251,0.01668 -0.02553,0.03296 -0.03906,0.04883 v 0.002 c -0.01844,0.0438 -0.03998,0.08622 -0.06445,0.126954 -0.282605,0.475894 -0.898021,0.631718 -1.373047,0.347656 -3.068682,-1.830765 -6.260512,-2.941406 -9.802734,-2.941406 -3.661434,0 -7.060783,1.555469 -9.908204,3.560546 -0.814745,0.500273 -1.234564,0.295114 -1.541016,-0.501948 -1.381743,-2.868996 -2.088589,-5.55072 -2.693358,-8.054691 -0.589795,-2.883553 -0.60451,-4.884486 0.259766,-6.601566 0.864272,-1.71704 2.016445,-3.18235 3.673828,-3.82227 3.546456,-1.16706 6.720336,-1.03548 9.872298,-1.02164 z"
           transform="matrix(0.26458334,0,0,0.26458334,0,280.06666)"
           sodipodi:nodetypes="csccsssssscsccssccccsccccccscccscc" />
        <path
           id="path50396"
           style="color:#000000;fill:#c8dae5;fill-opacity:1;stroke-width:3.00175;stroke-linecap:round;stroke-linejoin:round;-inkscape-stroke:none"
           d="m -93.400431,-104.94139 c 3.502874,-1.15633 6.718724,-1.19286 10.115235,-1.16605 2.809428,0.002 6.894218,-0.27025 10.208984,1.00976 0.511857,0.19763 1.006056,0.44117 1.472656,0.73047 2.320165,-2.32016 4.578248,-4.39075 6.898438,-6.71093 -6.237659,-3.28328 -12.179077,-2.58337 -17.959655,-2.57973 -5.780579,0.004 -13.177183,-0.64358 -18.583367,2.57777 z"
           transform="matrix(0.26458334,0,0,0.26458334,0,280.06666)"
           sodipodi:nodetypes="ccsccccc" />
        <path
           id="path53154"
           style="color:#000000;fill:#c8dae5;fill-opacity:1;stroke-width:0.794214;stroke-linecap:round;stroke-linejoin:round;-inkscape-stroke:none"
           d="m -27.323913,263.7384 c 0.15208,0.51337 0.366869,0.99596 0.634585,1.43919 0.203297,0.33659 0.538113,0.58847 0.900204,0.76585 0.36209,0.17738 0.755147,0.28112 1.11156,0.28112 h 5.282882 c 0.356412,0 0.74947,-0.10374 1.11156,-0.28112 0.36209,-0.17738 0.694839,-0.42926 0.898136,-0.76585 0.267593,-0.44302 0.482856,-0.92598 0.635103,-1.43919 -3.524677,0 -7.049353,0 -10.57403,0 z"
           sodipodi:nodetypes="ccssssccc" />
        <path
           style="color:#000000;fill:#c8dae5;fill-opacity:1;stroke-width:0.794214;stroke-linecap:round;stroke-linejoin:round;-inkscape-stroke:none"
           d="m -21.949219,258.24219 c 1.634821,0 2.953122,1.32026 2.953125,2.95508 10e-6,1.63482 -1.318296,2.95507 -2.953125,2.95507 -1.634829,0 -2.955088,-1.32025 -2.955078,-2.95507 4e-6,-1.63482 1.320258,-2.95508 2.955078,-2.95508 z"
           id="path53671" />
        <path
           id="rect326088"
           style="fill:#143441;stroke-width:1.58843;stroke-linecap:round;stroke-linejoin:round;stop-color:#000000"
           d="m -69.601562,-91.669922 c -0.652569,1.732058 -1.40057,3.313597 -2.283204,4.783203 -0.309532,0.631311 -0.905496,0.822887 -1.476557,0.52544 -0.188266,-0.112319 -0.380184,-0.211994 -0.570313,-0.31836 l 8.46875,6.417969 c -0.0072,-0.01288 -0.01422,-0.0262 -0.02148,-0.03906 1.001978,-1.899483 1.952849,-3.917703 2.835937,-6.09961 z m -34.355468,5.257813 c 0.85893,2.175001 1.77901,4.207902 2.73828,6.162109 l 8.279297,-6.035156 c -0.78624,0.608743 -1.517555,0.38339 -1.798829,-0.33398 -0.774872,-1.466843 -1.518433,-3.096639 -2.19336,-4.914062 z"
           transform="matrix(0.26458334,0,0,0.26458334,0,280.06666)"
           sodipodi:nodetypes="cccccccccccccc" />
        <path
           id="path326519"
           style="fill:#143441;stroke-width:1.58843;stroke-linecap:round;stroke-linejoin:round;stop-color:#000000"
           d="m -100.14258,-112.16601 c -2.01169,0.92352 -3.09261,3.12617 -5.02539,4.24999 l 7.244142,7.29883 c 0.731915,-2.12024 3.142339,-3.65519 4.923828,-4.36718 z m 33.910158,0.24805 -6.957031,7.08399 c 2.435592,1.23995 3.483565,2.84903 4.234375,5.11914 l 7.615234,-7.77149 c -1.191779,-2.02596 -2.921693,-3.45521 -4.892578,-4.43164 z"
           transform="matrix(0.26458334,0,0,0.26458334,0,280.06666)"
           sodipodi:nodetypes="cccccccccc" />
      </g>
      <path
         id="path2229"
         style="color:#000000;fill:#000000;stroke-width:0.794214;stroke-linecap:round;stroke-linejoin:round;-inkscape-stroke:none"
         d="m -26.404074,250.3124 c -0.711212,0.29592 -1.33918,0.87991 -1.646988,1.52755 -0.348644,0.75347 -0.440444,1.75644 -0.11842,3.19505 0.322025,1.43861 0.833358,2.6689 1.392235,3.80659 -0.487037,0.92032 -0.808736,1.95111 -0.808736,3.07061 0.02167,1.16899 0.318114,2.29562 0.896594,3.26544 0.203298,0.33659 0.538113,0.58846 0.900204,0.76584 0.36209,0.17738 0.755147,0.28112 1.11156,0.28112 h 5.282882 c 0.356412,0 0.74947,-0.10374 1.11156,-0.28112 0.36209,-0.17738 0.694839,-0.42925 0.898136,-0.76584 0.59172,-1.04637 0.893145,-2.09571 0.898654,-3.26544 -2e-6,-1.14918 -0.336372,-2.20006 -0.839743,-3.0918 0.579112,-1.09784 1.097987,-2.33408 1.421632,-3.77904 0.323645,-1.44496 0.231838,-2.44789 -0.1168,-3.20141 -0.348639,-0.75351 -0.953901,-1.23643 -1.646928,-1.52755 -1.386053,-0.58224 -3.143506,-0.46614 -4.46536,-0.47354 -1.321854,-0.007 -3.038847,-0.0246 -4.270482,0.47354 z m 1.385422,2.07741 -1.457277,-1.45779 c 1.40647,-0.61182 2.981719,-0.55709 4.439031,-0.55709 1.457311,0 3.214165,-0.0824 4.552177,0.61909 l -1.460376,1.45934 c -0.914809,-0.52567 -2.177541,-0.42554 -3.132568,-0.42554 -0.955026,0 -2.057726,-0.0651 -2.940987,0.36199 z m -0.434059,0.31366 c -0.603074,0.61517 -0.652868,1.41913 -0.428803,2.35488 0.173261,0.72357 0.446253,1.36851 0.735244,1.93478 l -0.337964,0.26458 c -0.114717,0.0901 -0.134829,0.25612 -0.04496,0.37104 0.09013,0.11472 0.256114,0.13483 0.371036,0.045 0.99029,-0.83527 2.143075,-1.20724 3.121257,-1.21853 0.937213,0 1.814791,0.27732 2.626713,0.76171 0.203686,0.11964 0.329963,-0.0414 0.43925,-0.22066 0.341274,-0.58477 0.61063,-1.22764 0.786144,-2.042 0.175514,-0.81436 0.129948,-1.54751 -0.349995,-2.16188 l 1.48208,-1.48415 c 0.223827,0.20306 0.410142,0.45032 0.55087,0.75448 0.287646,0.62169 0.384395,1.50538 0.150379,2.7559 -0.393113,1.54113 -0.900308,2.76957 -1.478463,3.85145 -0.04433,0.0821 -0.04217,0.18142 0.0057,0.26148 0.501712,0.8344 0.808735,1.8682 0.808737,2.9807 0,0.44712 -0.05014,0.88112 -0.143144,1.29656 h -1.918746 c 0.118674,-0.14153 0.248002,-0.30535 0.366386,-0.47646 0.08349,-0.12063 0.05288,-0.28616 -0.06821,-0.36897 -0.119802,-0.0828 -0.284032,-0.0533 -0.367419,0.0661 -0.303437,0.43857 -0.714686,0.85783 -0.714686,0.85783 -0.534946,0.53496 -1.270313,0.86506 -2.087727,0.86506 -1.772079,-0.1028 -2.93116,-1.35468 -2.955376,-2.95537 4e-6,-1.63482 1.320556,-2.95486 2.955376,-2.95486 1.634818,0 2.952788,1.32004 2.952791,2.95486 2.91e-4,0.14633 0.11929,0.26464 0.265617,0.26406 0.145722,-2.9e-4 0.263782,-0.11834 0.264066,-0.26406 -4e-6,-1.9208 -1.561673,-3.48403 -3.482474,-3.48403 -1.920802,0 -3.484537,1.56374 -3.484542,3.48454 -5e-6,0.74848 0.237336,1.44264 0.640787,2.01125 h -2.1208 c -0.093,-0.41544 -0.143145,-0.84944 -0.143145,-1.29656 3e-6,-1.0821 0.28924,-2.08892 0.781348,-2.96881 0.04238,-0.076 0.0447,-0.16796 0.0062,-0.24598 -0.561178,-1.13287 -1.062751,-2.35438 -1.451591,-3.87884 -0.234016,-1.25052 -0.137266,-2.13427 0.150379,-2.7559 0.159628,-0.34498 0.377544,-0.61694 0.642853,-0.83406 z m 3.415813,-0.18393 c 1.239876,0.0566 2.587643,-0.16125 3.292819,0.88889 0.159691,0.31726 0.219739,0.78231 0.08216,1.46296 -0.188816,0.67953 -0.419904,1.2445 -0.708484,1.75855 -0.818528,-0.44465 -1.714965,-0.70383 -2.666504,-0.70383 -0.971041,0 -1.886492,0.27012 -2.672705,0.75654 -0.261282,-0.52062 -0.504943,-1.10569 -0.700732,-1.80971 -0.138289,-0.68215 -0.07774,-1.14682 0.08216,-1.46451 0.723975,-1.0369 2.28025,-0.89307 3.291276,-0.88889 z m -1.254187,7.69716 c -0.146126,5.9e-4 -0.264123,0.1195 -0.26355,0.26562 v 0.45114 h -0.183452 c -0.145722,2.9e-4 -0.263782,0.11834 -0.264066,0.26406 5.55e-4,0.14552 0.118545,0.26327 0.264066,0.26355 h 0.183452 v 0.45114 c -5.82e-4,0.14612 0.117424,0.26505 0.26355,0.26562 0.146933,5.8e-4 0.266192,-0.11869 0.265616,-0.26562 v -0.45114 h 2.152324 v 0.45114 c -5.82e-4,0.14612 0.117424,0.26505 0.26355,0.26562 0.146934,5.8e-4 0.266192,-0.11869 0.265617,-0.26562 v -0.45114 h 0.181901 c 0.146126,5.9e-4 0.265047,-0.11742 0.265616,-0.26355 -2.91e-4,-0.14632 -0.119289,-0.26463 -0.265616,-0.26406 h -0.181901 v -0.45114 c 5.82e-4,-0.14693 -0.118683,-0.26619 -0.265617,-0.26562 -0.146126,5.9e-4 -0.264122,0.1195 -0.26355,0.26562 v 0.45114 h -2.152324 v -0.45114 c 5.82e-4,-0.14693 -0.118683,-0.26619 -0.265616,-0.26562 z m -3.477309,3.52175 h 2.438096 c 0.623497,0.58459 1.461472,0.9431 2.38125,0.9431 0.919909,0 1.75892,-0.35909 2.381766,-0.9431 h 2.263428 c -0.135078,0.41401 -0.314348,0.80504 -0.532267,1.16582 -0.126993,0.21025 -0.383569,0.41776 -0.679545,0.56276 -0.295976,0.14499 -0.630961,0.22841 -0.879016,0.22841 h -5.282882 c -0.248056,0 -0.583039,-0.0834 -0.879016,-0.22841 -0.295976,-0.145 -0.552553,-0.35251 -0.679545,-0.56276 -0.21794,-0.36082 -0.397186,-0.75177 -0.532269,-1.16582 z"
         sodipodi:nodetypes="ccccccssssccccsszccczcczcccccccccccccscccsccccccccscccssccscccsccccccsccccscccccccsccccscccccccsccccsccsccscsscsc" />
    </g>
  </g>
</svg>
