<?xml version="1.0" encoding="UTF-8"?>
<svg xmlns="http://www.w3.org/2000/svg" xmlns:xlink="http://www.w3.org/1999/xlink" width="50px" height="50px" viewBox="0 0 50 50" version="1.1">
<g id="surface1">
<path style=" stroke:none;fill-rule:nonzero;fill:rgb(0%,0%,0%);fill-opacity:1;" d="M 13.1875 0.664062 C 12.6875 0.882812 12.164062 1.359375 11.902344 1.863281 C 11.707031 2.242188 11.664062 2.527344 11.632812 3.84375 C 11.578125 5.964844 11.785156 6.609375 12.785156 7.316406 C 13.234375 7.621094 13.332031 7.640625 14.527344 7.695312 L 15.800781 7.75 L 15.824219 10.429688 L 15.84375 13.109375 L 13.015625 16.121094 L 10.183594 19.136719 L 10.21875 31.679688 L 10.25 44.21875 L 10.542969 45.101562 C 11.089844 46.691406 12.210938 48.007812 13.691406 48.792969 C 15.0625 49.511719 14.808594 49.5 24.96875 49.5 C 31.160156 49.5 34.320312 49.457031 34.710938 49.378906 C 35.539062 49.207031 36.941406 48.507812 37.585938 47.933594 C 38.347656 47.257812 39.085938 46.136719 39.445312 45.089844 L 39.75 44.21875 L 39.78125 31.65625 L 39.816406 19.085938 L 36.972656 16.242188 L 34.144531 13.402344 L 34.164062 10.582031 L 34.199219 7.75 L 35.472656 7.695312 C 36.667969 7.640625 36.765625 7.621094 37.214844 7.316406 C 38.214844 6.609375 38.421875 5.964844 38.367188 3.84375 C 38.335938 2.527344 38.289062 2.242188 38.09375 1.863281 C 37.824219 1.351562 37.3125 0.871094 36.789062 0.652344 C 36.277344 0.445312 13.679688 0.445312 13.1875 0.664062 Z M 36.398438 2.40625 L 36.703125 2.667969 L 36.703125 5.542969 L 36.09375 6.066406 L 13.90625 6.066406 L 13.296875 5.542969 L 13.296875 2.667969 L 13.90625 2.144531 L 36.09375 2.144531 Z M 32.511719 10.363281 L 32.511719 13.03125 L 17.488281 13.03125 L 17.488281 7.699219 L 32.511719 7.699219 Z M 35.539062 17.199219 L 38.0625 19.726562 L 38.042969 32.039062 L 38.007812 44.339844 L 37.605469 45.15625 C 36.976562 46.441406 35.875 47.34375 34.527344 47.691406 C 33.96875 47.84375 32.683594 47.867188 25.097656 47.867188 C 19.65625 47.867188 16.105469 47.824219 15.746094 47.757812 C 14.300781 47.484375 13.078125 46.539062 12.40625 45.167969 L 11.992188 44.339844 L 11.960938 32.039062 L 11.9375 19.726562 L 14.300781 17.1875 L 16.671875 14.664062 L 33 14.664062 Z M 35.539062 17.199219 "/>
<path style=" stroke:none;fill-rule:nonzero;fill:rgb(0%,0%,0%);fill-opacity:1;" d="M 26.65625 21.488281 C 26.535156 21.535156 21.625 31.191406 21.625 31.375 C 21.625 31.40625 22.527344 31.429688 23.640625 31.429688 C 24.75 31.429688 25.652344 31.449219 25.652344 31.484375 C 25.652344 31.503906 24.847656 33.148438 23.859375 35.128906 C 22.867188 37.113281 22.0625 38.800781 22.0625 38.886719 C 22.0625 39.203125 22.324219 39.582031 22.617188 39.703125 C 23.300781 39.984375 23.324219 39.941406 25.957031 34.707031 C 27.296875 32.058594 28.363281 29.863281 28.332031 29.828125 C 28.300781 29.796875 27.394531 29.773438 26.304688 29.773438 C 25.140625 29.773438 24.347656 29.742188 24.347656 29.675781 C 24.347656 29.621094 25.152344 27.957031 26.144531 25.984375 C 27.132812 24.015625 27.941406 22.304688 27.941406 22.1875 C 27.941406 21.816406 27.527344 21.414062 27.144531 21.425781 C 26.949219 21.425781 26.730469 21.457031 26.65625 21.488281 Z M 26.65625 21.488281 "/>
</g>
</svg>
